<svg width="130" height="147" fill="none" xmlns="http://www.w3.org/2000/svg"><path d="M0-19h130v151c0 8.284-6.716 15-15 15H0V-19z" fill="#241D19"/><path d="M32.16 38.043h-7.942a2.393 2.393 0 00-2.384 2.176l-3.492 38.277h7.868c1.28 0 2.348-.976 2.464-2.25l3.486-38.203z" fill="url(#paint0_linear_487_9)"/><path d="M73.457 38.042H45.233a6.823 6.823 0 00-6.802 6.28L36.107 73.45a4.675 4.675 0 004.66 5.047H69.98a6.675 6.675 0 006.654-6.145l2.267-28.412a5.463 5.463 0 00-5.445-5.898zm-6.54 28.328a2.192 2.192 0 01-2.184 1.998h-18.25l1.608-18.113a2.191 2.191 0 012.182-1.998h18.251L66.917 66.37z" fill="url(#paint1_linear_487_9)"/><path d="M114.18 38.042l-.9 7.944a2.558 2.558 0 01-2.541 2.27H97.608a2.081 2.081 0 00-2.075 1.915l-2.28 28.325h-10.09l2.73-33.947a7.075 7.075 0 017.053-6.508h21.234v.001z" fill="url(#paint2_linear_487_9)"/><path d="M21.844 83.21l-1.156 7.298h-.857l1.156-7.299h-2.975l.117-.67h6.809l-.104.67h-2.99z" fill="url(#paint3_linear_487_9)"/><path d="M27.99 83.175c-.636 0-.961.288-1.04.854l-.311 1.963h4.015l-.091.589h-4.015l-.377 2.47c-.09.543.182.82.78.82h3.585v.578c-1.195.07-2.494.07-3.703.07-1.117 0-1.663-.578-1.533-1.456l.831-5.244c.117-.785.727-1.293 1.74-1.293 1.3 0 2.639 0 3.847.07l-.117.577H27.99v.002z" fill="url(#paint4_linear_487_9)"/><path d="M38.333 90.508h-.844l1.156-7.345H36.63c-.702 0-1.026.22-1.182.9-.74 2.969-.975 3.927-1.78 5.047-.572.82-1.352 1.329-2.235 1.41l-.052-.636c.494-.162.974-.359 1.507-1.063.754-.993.962-1.72 1.754-4.954.221-.935.806-1.328 1.82-1.328h3.131l-1.26 7.969z" fill="url(#paint5_linear_487_9)"/><path d="M43.57 83.175c-.636 0-.961.288-1.04.854l-.311 1.963h4.015l-.09.589h-4.016l-.377 2.47c-.09.543.183.82.78.82h3.586v.578c-1.196.07-2.495.07-3.704.07-1.117 0-1.663-.578-1.532-1.456l.83-5.244c.118-.785.728-1.293 1.742-1.293 1.3 0 2.638 0 3.846.07l-.117.577H43.57v.002z" fill="url(#paint6_linear_487_9)"/><path d="M51.393 86.373c1.636.162 1.936 1.813 2.56 4.145l-.872-.023c-.61-2.298-.844-3.823-2.611-3.834h-1.13c0 .29-.027.578-.08.913l-.467 2.933h-.844l1.26-7.969h.845l-.402 2.587c-.065.346-.117.623-.208.913h1.079c1.624 0 2.494-1.651 3.586-3.511l.883.023c-1.104 1.928-2.027 3.66-3.573 3.788l-.026.035z" fill="url(#paint7_linear_487_9)"/><path d="M62.658 86.558c-.467 3.06-1.52 4.088-4.028 4.088-2.469 0-3.352-1.062-2.871-4.157.468-3.014 1.494-4.088 4.054-4.088 2.48 0 3.338 1.085 2.845 4.157zm-6.03 0c-.39 2.564.091 3.418 2.014 3.418 1.95 0 2.716-.865 3.132-3.487.43-2.61-.052-3.418-1.988-3.418-1.988 0-2.728.854-3.157 3.487z" fill="url(#paint8_linear_487_9)"/><path d="M73.638 82.54c.234 0 .377.138.35.358l-.83 7.61h-.845l.819-7.333h-.273l-3.327 6.258c-.078.173-.194.243-.39.243h-.857c-.208 0-.338-.104-.364-.277l-1.39-6.224h-.286l-1.481 7.333h-.858l1.573-7.645c.052-.219.169-.324.402-.324h1c.195 0 .312.104.338.277l1.183 5.209c.078.358.13.716.208 1.085h.286c.182-.38.364-.75.546-1.096l2.78-5.22c.079-.173.195-.254.404-.254h1.012z" fill="url(#paint9_linear_487_9)"/><defs><linearGradient id="paint0_linear_487_9" x1="2.698" y1="47.501" x2="79.383" y2="84.117" gradientUnits="userSpaceOnUse"><stop stop-color="#F9D4BC"/><stop offset="1" stop-color="#F4AF84"/></linearGradient><linearGradient id="paint1_linear_487_9" x1="8.63" y1="35.078" x2="85.315" y2="71.693" gradientUnits="userSpaceOnUse"><stop stop-color="#F9D4BC"/><stop offset="1" stop-color="#F4AF84"/></linearGradient><linearGradient id="paint2_linear_487_9" x1="16.329" y1="18.953" x2="93.014" y2="55.568" gradientUnits="userSpaceOnUse"><stop stop-color="#F9D4BC"/><stop offset="1" stop-color="#F4AF84"/></linearGradient><linearGradient id="paint3_linear_487_9" x1="12.018" y1="86.299" x2="75.284" y2="87.67" gradientUnits="userSpaceOnUse"><stop stop-color="#F9D4BC"/><stop offset="1" stop-color="#F4AF84"/></linearGradient><linearGradient id="paint4_linear_487_9" x1="12.021" y1="86.173" x2="75.286" y2="87.545" gradientUnits="userSpaceOnUse"><stop stop-color="#F9D4BC"/><stop offset="1" stop-color="#F4AF84"/></linearGradient><linearGradient id="paint5_linear_487_9" x1="12.024" y1="86.02" x2="75.29" y2="87.391" gradientUnits="userSpaceOnUse"><stop stop-color="#F9D4BC"/><stop offset="1" stop-color="#F4AF84"/></linearGradient><linearGradient id="paint6_linear_487_9" x1="12.028" y1="85.836" x2="75.294" y2="87.207" gradientUnits="userSpaceOnUse"><stop stop-color="#F9D4BC"/><stop offset="1" stop-color="#F4AF84"/></linearGradient><linearGradient id="paint7_linear_487_9" x1="12.031" y1="85.672" x2="75.297" y2="87.044" gradientUnits="userSpaceOnUse"><stop stop-color="#F9D4BC"/><stop offset="1" stop-color="#F4AF84"/></linearGradient><linearGradient id="paint8_linear_487_9" x1="12.035" y1="85.5" x2="75.301" y2="86.872" gradientUnits="userSpaceOnUse"><stop stop-color="#F9D4BC"/><stop offset="1" stop-color="#F4AF84"/></linearGradient><linearGradient id="paint9_linear_487_9" x1="12.04" y1="85.293" x2="75.305" y2="86.665" gradientUnits="userSpaceOnUse"><stop stop-color="#F9D4BC"/><stop offset="1" stop-color="#F4AF84"/></linearGradient></defs></svg>