<svg width="84" height="67" fill="none" xmlns="http://www.w3.org/2000/svg"><path d="M12.681 34.557H4.218C2.724 48.033 6.209 52.525 7.205 58.016c.815 4.492 10.454 3.993 9.459-.998-1.54-7.723-4.315-17.97-3.983-22.461z" fill="#00C9AF"/><path d="M24.82 15.344L18.654 9.53C8.357 18.32 7.245 25.382 4.218 30.065c-2.477 3.831 5.777 6.814 8.463 2.495 4.156-6.683 8.827-14.172 12.138-17.216z" fill="#FFD777"/><path d="M59.18 15.344l6.165-5.814c10.298 8.79 11.41 15.852 14.437 20.535 2.477 3.831-5.777 6.814-8.463 2.495-4.156-6.683-8.827-14.172-12.138-17.216z" fill="#FF8244"/><path d="M58.978 14.342l7.966-5.74C38.072-4.371 27.877 5.373 22.487 6.766c-4.41 1.14-.35 8.938 4.543 7.58 7.571-2.099 11.04-6.737 31.948-.003z" fill="#FFBA4A"/><path d="M71.995 36.054h8.463c1.494 13.477-1.99 17.969-2.987 23.46-.814 4.491-10.454 3.992-9.458-1 1.54-7.722 4.314-17.968 3.982-22.46z" fill="#FD4848"/><path d="M13.42 61.51c-2.287 0-4.343-1.116-5.314-2.981a38.839 38.839 0 01-4.38-17.98c0-21.504 17.387-38.93 38.825-38.93 21.438 0 38.825 17.426 38.825 38.93a38.846 38.846 0 01-4.38 17.98c-.97 1.865-3.027 2.98-5.315 2.98-1.114 0-2.194-.805-2.85-2.282-.653-1.473-.669-3.189-.025-4.375a29.882 29.882 0 003.621-14.304c0-16.537-13.372-29.95-29.876-29.95s-29.876 13.413-29.876 29.95a29.882 29.882 0 003.62 14.304c.645 1.186.63 2.902-.025 4.375-.655 1.477-1.735 2.282-2.85 2.282z" stroke="#241D19" stroke-width="3"/><path d="M49.514 40.047c0 4.137-3.344 7.484-7.46 7.484-4.118 0-7.462-3.347-7.462-7.484 0-4.137 3.344-7.484 7.461-7.484 4.117 0 7.461 3.347 7.461 7.484z" stroke="#241D19" stroke-width="3"/><path d="M42.558 43.186l-26.965 6.636 24.612-12.887a3.357 3.357 0 014.7 1.792 3.37 3.37 0 01-2.347 4.46z" fill="#858585" stroke="#241D19" stroke-width="3"/><ellipse cx="18.655" cy="43.541" rx="1.494" ry="1.497" fill="#241D19"/><ellipse cx="21.642" cy="26.571" rx="1.494" ry="1.497" fill="#241D19"/><ellipse cx="42.551" cy="14.592" rx="1.494" ry="1.497" fill="#241D19"/><ellipse cx="62.464" cy="26.571" rx="1.494" ry="1.497" fill="#241D19"/><ellipse cx="66.447" cy="43.541" rx="1.494" ry="1.497" fill="#241D19"/><mask id="a" fill="#fff"><rect x="33.092" y="61.011" width="18.918" height="5.99" rx="1"/></mask><rect x="33.092" y="61.011" width="18.918" height="5.99" rx="1" fill="#8AE7D3" stroke="#241D19" stroke-width="4" mask="url(#a)"/></svg>