<svg width="20" height="12" fill="none" xmlns="http://www.w3.org/2000/svg"><path d="M19.16 1.398c.106-.421 0-.773-.633-.773h-2.074c-.527 0-.773.281-.914.598 0 0-1.055 2.566-2.531 4.254-.492.457-.703.632-.985.632-.105 0-.316-.175-.316-.597V1.398c0-.527-.14-.773-.598-.773H7.875c-.352 0-.527.246-.527.492 0 .492.738.598.808 2.004V6.18c0 .668-.105.808-.386.808-.704 0-2.391-2.601-3.41-5.554C4.147.87 3.936.625 3.41.625H1.336c-.563 0-.703.281-.703.598 0 .562.703 3.27 3.27 6.89 1.722 2.461 4.148 3.762 6.327 3.762 1.301 0 1.477-.281 1.477-.773 0-2.356-.105-2.602.527-2.602.317 0 .844.176 2.075 1.371 1.406 1.406 1.652 2.004 2.425 2.004h2.075c.597 0 .878-.281.703-.879-.387-1.195-3.024-3.726-3.164-3.902-.317-.387-.211-.563 0-.914 0 0 2.53-3.586 2.812-4.782z" fill="#F4AE86"/></svg>