<svg width="118" height="65" fill="none" xmlns="http://www.w3.org/2000/svg"><path d="M17.995.379H8.32A2.915 2.915 0 005.416 3.03L1.162 49.66h9.584a3.015 3.015 0 003.003-2.742L17.995.379z" fill="url(#paint0_linear_388_6)"/><path d="M68.302.378H33.92a8.312 8.312 0 00-8.286 7.65l-2.831 35.484a5.695 5.695 0 005.676 6.147h35.588a8.131 8.131 0 008.106-7.485l2.762-34.61A6.655 6.655 0 0068.302.378zm-7.967 34.51a2.67 2.67 0 01-2.66 2.434H35.443l1.958-22.066a2.67 2.67 0 012.66-2.434h22.232l-1.958 22.065z" fill="url(#paint1_linear_388_6)"/><path d="M117.91.378l-1.096 9.678a3.117 3.117 0 01-3.096 2.765H97.722a2.535 2.535 0 00-2.527 2.332l-2.777 34.505H80.125l3.328-41.352a8.62 8.62 0 018.59-7.929h25.867v.001z" fill="url(#paint2_linear_388_6)"/><path d="M5.429 55.4L4.02 64.291H2.976l1.408-8.89H.76l.142-.817h8.295l-.127.816H5.43z" fill="url(#paint3_linear_388_6)"/><path d="M12.915 55.358c-.775 0-1.171.351-1.267 1.041l-.38 2.391h4.892l-.11.717h-4.892l-.459 3.01c-.11.661.222.999.95.999h4.368v.703c-1.457.085-3.038.085-4.511.085-1.361 0-2.026-.704-1.868-1.773l1.013-6.387c.143-.957.886-1.576 2.12-1.576 1.583 0 3.214 0 4.685.084l-.142.704h-4.399v.002z" fill="url(#paint4_linear_388_6)"/><path d="M25.515 64.291h-1.029l1.409-8.947h-2.453c-.855 0-1.251.268-1.44 1.097-.903 3.616-1.188 4.783-2.17 6.148-.696.999-1.646 1.618-2.722 1.716l-.063-.774c.602-.197 1.187-.437 1.836-1.294.918-1.21 1.171-2.096 2.137-6.035.269-1.14.981-1.618 2.216-1.618h3.815l-1.536 9.707z" fill="url(#paint5_linear_388_6)"/><path d="M31.895 55.358c-.776 0-1.171.351-1.267 1.041l-.38 2.391h4.891l-.11.717h-4.891l-.46 3.01c-.11.661.223.999.95.999h4.369v.703c-1.457.085-3.039.085-4.512.085-1.36 0-2.026-.704-1.867-1.773l1.013-6.387c.142-.957.885-1.576 2.121-1.576 1.583 0 3.214 0 4.685.084l-.142.704h-4.4v.002z" fill="url(#paint6_linear_388_6)"/><path d="M41.424 59.254c1.994.197 2.358 2.209 3.118 5.05l-1.061-.029c-.745-2.799-1.029-4.656-3.181-4.67h-1.378c0 .353-.032.704-.095 1.112l-.57 3.573H37.23l1.536-9.707h1.028l-.49 3.151c-.08.422-.142.76-.253 1.112h1.314c1.98 0 3.039-2.011 4.369-4.277l1.076.028c-1.345 2.35-2.47 4.46-4.353 4.615l-.032.042z" fill="url(#paint7_linear_388_6)"/><path d="M55.148 59.48c-.57 3.728-1.853 4.98-4.908 4.98-3.007 0-4.083-1.294-3.497-5.064.57-3.672 1.82-4.98 4.938-4.98 3.022 0 4.067 1.322 3.467 5.064zm-7.346 0c-.475 3.123.11 4.164 2.453 4.164 2.375 0 3.308-1.055 3.816-4.248.522-3.18-.064-4.164-2.422-4.164-2.422 0-3.324 1.04-3.847 4.248z" fill="url(#paint8_linear_388_6)"/><path d="M68.523 54.584c.285 0 .459.169.427.437l-1.013 9.27H66.91l.997-8.933h-.332l-4.053 7.624c-.095.211-.237.296-.475.296h-1.044c-.254 0-.412-.127-.444-.338l-1.693-7.582h-.349l-1.804 8.933h-1.045l1.916-9.313c.064-.266.206-.394.49-.394h1.219c.237 0 .38.126.412.337l1.44 6.346c.096.436.159.872.253 1.322h.349c.222-.464.443-.914.665-1.336l3.387-6.359c.096-.21.237-.309.492-.309h1.233v-.001z" fill="url(#paint9_linear_388_6)"/><defs><linearGradient id="paint0_linear_388_6" x1="-17.895" y1="11.901" x2="75.521" y2="56.505" gradientUnits="userSpaceOnUse"><stop stop-color="#F9D4BC"/><stop offset="1" stop-color="#F4AF84"/></linearGradient><linearGradient id="paint1_linear_388_6" x1="-10.669" y1="-3.233" x2="82.747" y2="41.371" gradientUnits="userSpaceOnUse"><stop stop-color="#F9D4BC"/><stop offset="1" stop-color="#F4AF84"/></linearGradient><linearGradient id="paint2_linear_388_6" x1="-1.29" y1="-22.876" x2="92.126" y2="21.728" gradientUnits="userSpaceOnUse"><stop stop-color="#F9D4BC"/><stop offset="1" stop-color="#F4AF84"/></linearGradient><linearGradient id="paint3_linear_388_6" x1="-6.542" y1="59.164" x2="70.527" y2="60.834" gradientUnits="userSpaceOnUse"><stop stop-color="#F9D4BC"/><stop offset="1" stop-color="#F4AF84"/></linearGradient><linearGradient id="paint4_linear_388_6" x1="-6.538" y1="59.011" x2="70.531" y2="60.682" gradientUnits="userSpaceOnUse"><stop stop-color="#F9D4BC"/><stop offset="1" stop-color="#F4AF84"/></linearGradient><linearGradient id="paint5_linear_388_6" x1="-6.534" y1="58.824" x2="70.535" y2="60.495" gradientUnits="userSpaceOnUse"><stop stop-color="#F9D4BC"/><stop offset="1" stop-color="#F4AF84"/></linearGradient><linearGradient id="paint6_linear_388_6" x1="-6.53" y1="58.6" x2="70.54" y2="60.271" gradientUnits="userSpaceOnUse"><stop stop-color="#F9D4BC"/><stop offset="1" stop-color="#F4AF84"/></linearGradient><linearGradient id="paint7_linear_388_6" x1="-6.525" y1="58.401" x2="70.544" y2="60.071" gradientUnits="userSpaceOnUse"><stop stop-color="#F9D4BC"/><stop offset="1" stop-color="#F4AF84"/></linearGradient><linearGradient id="paint8_linear_388_6" x1="-6.521" y1="58.191" x2="70.548" y2="59.862" gradientUnits="userSpaceOnUse"><stop stop-color="#F9D4BC"/><stop offset="1" stop-color="#F4AF84"/></linearGradient><linearGradient id="paint9_linear_388_6" x1="-6.515" y1="57.939" x2="70.554" y2="59.61" gradientUnits="userSpaceOnUse"><stop stop-color="#F9D4BC"/><stop offset="1" stop-color="#F4AF84"/></linearGradient></defs></svg>