<svg width="118" height="65" viewBox="0 0 118 65" fill="none" xmlns="http://www.w3.org/2000/svg">
<path d="M17.9948 0.378906H8.31952C6.81202 0.378906 5.55266 1.52783 5.41618 3.03037L1.16168 49.6587H10.7464C12.306 49.6587 13.6076 48.47 13.749 46.9166L17.9948 0.378906Z" fill="url(#paint0_linear_388_6)"/>
<path d="M68.3019 0.378418H33.9197C29.5858 0.378418 25.979 3.70856 25.6341 8.02883L22.8027 43.5116C22.5384 46.8243 25.1551 49.6594 28.4791 49.6594H64.0673C68.3081 49.6594 71.8368 46.4 72.173 42.174L74.9349 7.56355C75.2438 3.69119 72.1854 0.378418 68.3019 0.378418ZM60.3351 34.8872C60.2123 36.2656 59.0584 37.3215 57.675 37.3215H35.4434L37.4013 15.2561C37.5228 13.8789 38.6767 12.8218 40.0602 12.8218H62.293L60.3351 34.8872Z" fill="url(#paint1_linear_388_6)"/>
<path d="M117.91 0.378439L116.814 10.0562C116.635 11.6307 115.302 12.8206 113.718 12.8206H97.7224C96.401 12.8206 95.3004 13.8355 95.195 15.1532L92.4182 49.6582H80.1249L83.4526 8.30553C83.8124 3.8277 87.552 0.377197 92.0435 0.377197H117.91V0.378439Z" fill="url(#paint2_linear_388_6)"/>
<path d="M5.42861 55.4003L4.02037 64.2914H2.97567L4.38391 55.4003H0.759705L0.902389 54.5839H9.19674L9.07018 55.4003H5.42861Z" fill="url(#paint3_linear_388_6)"/>
<path d="M12.9152 55.3581C12.1398 55.3581 11.744 55.7092 11.6484 56.3991L11.2688 58.79H16.1598L16.0493 59.5071H11.1583L10.6993 62.5172C10.5888 63.1785 10.9214 63.516 11.6484 63.516H16.0171V64.2195C14.5605 64.3038 12.9785 64.3038 11.5057 64.3038C10.1447 64.3038 9.47962 63.6004 9.63843 62.5308L10.6509 56.1435C10.7936 55.1869 11.5368 54.5677 12.7713 54.5677C14.3545 54.5677 15.9848 54.5677 17.4563 54.6521L17.3137 55.3556H12.9152V55.3581Z" fill="url(#paint4_linear_388_6)"/>
<path d="M25.5149 64.2914H24.4864L25.8946 55.3444H23.4417C22.5868 55.3444 22.191 55.6124 22.0012 56.4412C21.0991 60.0568 20.8138 61.2243 19.8323 62.5891C19.1363 63.5879 18.1859 64.2071 17.1102 64.3051L17.0469 63.5308C17.6486 63.3336 18.2343 63.0941 18.8832 62.2368C19.8013 61.027 20.0544 60.1411 21.0197 56.2018C21.289 55.0628 22.0012 54.5839 23.2357 54.5839H27.051L25.5149 64.2914Z" fill="url(#paint5_linear_388_6)"/>
<path d="M31.8948 55.3581C31.1194 55.3581 30.7236 55.7092 30.628 56.3991L30.2484 58.79H35.1394L35.029 59.5071H30.138L29.6789 62.5172C29.5685 63.1785 29.901 63.516 30.628 63.516H34.9967V64.2195C33.5401 64.3038 31.9581 64.3038 30.4854 64.3038C29.1243 64.3038 28.4592 63.6004 28.618 62.5308L29.6305 56.1435C29.7732 55.1869 30.5164 54.5677 31.7522 54.5677C33.3353 54.5677 34.9657 54.5677 36.4372 54.6521L36.2945 55.3556H31.8948V55.3581Z" fill="url(#paint6_linear_388_6)"/>
<path d="M41.4238 59.254C43.4176 59.4513 43.7824 61.4625 44.5417 64.3038L43.4809 64.2753C42.7365 61.4762 42.4523 59.6188 40.2997 59.6051H38.9224C38.9224 59.9575 38.8902 60.3087 38.8269 60.7169L38.2574 64.2902H37.2288L38.7649 54.5826H39.7934L39.3033 57.7341C39.2239 58.156 39.1607 58.4934 39.0502 58.8458H40.3642C42.3432 58.8458 43.4027 56.8346 44.7328 54.569L45.8085 54.5975C44.4636 56.9462 43.3395 59.0567 41.456 59.2118L41.4238 59.254Z" fill="url(#paint7_linear_388_6)"/>
<path d="M55.1476 59.4799C54.5781 63.2083 53.2951 64.4602 50.2404 64.4602C47.2329 64.4602 46.1572 63.1661 46.7428 59.3955C47.3123 55.7241 48.563 54.4152 51.6809 54.4152C54.7034 54.4152 55.7481 55.7378 55.1476 59.4799ZM47.8024 59.4799C47.3272 62.6028 47.9128 63.6438 50.2553 63.6438C52.6301 63.6438 53.5631 62.5892 54.0706 59.3955C54.593 56.2167 54.0073 55.2316 51.6487 55.2316C49.2268 55.2316 48.3247 56.2726 47.8024 59.4799Z" fill="url(#paint8_linear_388_6)"/>
<path d="M68.5228 54.5839C68.8082 54.5839 68.9819 54.7526 68.9496 55.0206L67.9372 64.2914H66.9086L67.9062 55.3581H67.5737L63.5214 62.9824C63.4259 63.1933 63.2844 63.2777 63.0462 63.2777H62.0015C61.7484 63.2777 61.5896 63.1511 61.5585 62.9402L59.8649 55.3581H59.5163L57.7122 64.2914H56.6675L58.5832 54.9784C58.6465 54.7117 58.7892 54.5839 59.0733 54.5839H60.2917C60.5287 54.5839 60.6714 54.7104 60.7037 54.9213L62.1442 61.2665C62.2397 61.7032 62.303 62.1387 62.3973 62.5891H62.7459C62.968 62.1251 63.1889 61.6747 63.411 61.2528L66.7982 54.894C66.8937 54.6831 67.0352 54.5851 67.2895 54.5851H68.5228V54.5839Z" fill="url(#paint9_linear_388_6)"/>
<defs>
<linearGradient id="paint0_linear_388_6" x1="-17.895" y1="11.9013" x2="75.5208" y2="56.5053" gradientUnits="userSpaceOnUse">
<stop stop-color="#F9D4BC"/>
<stop offset="1" stop-color="#F4AF84"/>
</linearGradient>
<linearGradient id="paint1_linear_388_6" x1="-10.669" y1="-3.23288" x2="82.7469" y2="41.3711" gradientUnits="userSpaceOnUse">
<stop stop-color="#F9D4BC"/>
<stop offset="1" stop-color="#F4AF84"/>
</linearGradient>
<linearGradient id="paint2_linear_388_6" x1="-1.28985" y1="-22.8759" x2="92.126" y2="21.7281" gradientUnits="userSpaceOnUse">
<stop stop-color="#F9D4BC"/>
<stop offset="1" stop-color="#F4AF84"/>
</linearGradient>
<linearGradient id="paint3_linear_388_6" x1="-6.54177" y1="59.1636" x2="70.5273" y2="60.8345" gradientUnits="userSpaceOnUse">
<stop stop-color="#F9D4BC"/>
<stop offset="1" stop-color="#F4AF84"/>
</linearGradient>
<linearGradient id="paint4_linear_388_6" x1="-6.53846" y1="59.011" x2="70.5306" y2="60.6819" gradientUnits="userSpaceOnUse">
<stop stop-color="#F9D4BC"/>
<stop offset="1" stop-color="#F4AF84"/>
</linearGradient>
<linearGradient id="paint5_linear_388_6" x1="-6.53444" y1="58.824" x2="70.5347" y2="60.4949" gradientUnits="userSpaceOnUse">
<stop stop-color="#F9D4BC"/>
<stop offset="1" stop-color="#F4AF84"/>
</linearGradient>
<linearGradient id="paint6_linear_388_6" x1="-6.52955" y1="58.5997" x2="70.5396" y2="60.2706" gradientUnits="userSpaceOnUse">
<stop stop-color="#F9D4BC"/>
<stop offset="1" stop-color="#F4AF84"/>
</linearGradient>
<linearGradient id="paint7_linear_388_6" x1="-6.52519" y1="58.4005" x2="70.5439" y2="60.0714" gradientUnits="userSpaceOnUse">
<stop stop-color="#F9D4BC"/>
<stop offset="1" stop-color="#F4AF84"/>
</linearGradient>
<linearGradient id="paint8_linear_388_6" x1="-6.52073" y1="58.1913" x2="70.5484" y2="59.8622" gradientUnits="userSpaceOnUse">
<stop stop-color="#F9D4BC"/>
<stop offset="1" stop-color="#F4AF84"/>
</linearGradient>
<linearGradient id="paint9_linear_388_6" x1="-6.51523" y1="57.939" x2="70.554" y2="59.6099" gradientUnits="userSpaceOnUse">
<stop stop-color="#F9D4BC"/>
<stop offset="1" stop-color="#F4AF84"/>
</linearGradient>
</defs>
</svg>
