<svg width="130" height="147" viewBox="0 0 130 147" fill="none" xmlns="http://www.w3.org/2000/svg">
<path d="M0 -19H130V132C130 140.284 123.284 147 115 147H0V-19Z" fill="#241D19"/>
<path d="M32.1599 38.0427H24.2175C22.98 38.0427 21.9462 38.9858 21.8342 40.2192L18.3417 78.4962H26.2097C27.49 78.4962 28.5584 77.5204 28.6745 76.2452L32.1599 38.0427Z" fill="url(#paint0_linear_487_9)"/>
<path d="M73.4568 38.0421H45.2326C41.6749 38.0421 38.7141 40.7758 38.4309 44.3222L36.1067 73.4499C35.8897 76.1693 38.0378 78.4966 40.7664 78.4966H69.9806C73.4618 78.4966 76.3585 75.821 76.6345 72.3519L78.9018 43.9403C79.1554 40.7615 76.6447 38.0421 73.4568 38.0421ZM66.9168 66.3701C66.816 67.5017 65.8688 68.3685 64.7331 68.3685H46.4833L48.0905 50.2551C48.1904 49.1246 49.1376 48.2568 50.2732 48.2568H68.5241L66.9168 66.3701Z" fill="url(#paint1_linear_487_9)"/>
<path d="M114.18 38.042L113.28 45.9865C113.133 47.279 112.039 48.2557 110.739 48.2557H97.6079C96.5232 48.2557 95.6197 49.0889 95.5332 50.1706L93.2537 78.4956H83.1622L85.8939 44.5493C86.1893 40.8735 89.2591 38.041 92.9461 38.041H114.18V38.042Z" fill="url(#paint2_linear_487_9)"/>
<path d="M21.8443 83.2092L20.6883 90.5079H19.8307L20.9867 83.2092H18.0117L18.1288 82.5391H24.9376L24.8337 83.2092H21.8443Z" fill="url(#paint3_linear_487_9)"/>
<path d="M27.99 83.1747C27.3535 83.1747 27.0286 83.4629 26.9501 84.0292L26.6385 85.9919H30.6535L30.5628 86.5806H26.5478L26.171 89.0515C26.0803 89.5944 26.3533 89.8714 26.9501 89.8714H30.5363V90.4489C29.3406 90.5182 28.042 90.5182 26.833 90.5182C25.7157 90.5182 25.1698 89.9407 25.3001 89.0627L26.1312 83.8194C26.2484 83.0341 26.8585 82.5259 27.8719 82.5259C29.1715 82.5259 30.5099 82.5259 31.7178 82.5951L31.6007 83.1726H27.99V83.1747Z" fill="url(#paint4_linear_487_9)"/>
<path d="M38.3331 90.5079H37.4888L38.6448 83.1634H36.6312C35.9294 83.1634 35.6045 83.3834 35.4487 84.0638C34.7082 87.0317 34.4739 87.9902 33.6683 89.1105C33.0969 89.9304 32.3167 90.4387 31.4337 90.5191L31.3817 89.8836C31.8757 89.7217 32.3564 89.5251 32.8891 88.8213C33.6428 87.8282 33.8506 87.101 34.643 83.8672C34.864 82.9322 35.4487 82.5391 36.4621 82.5391H39.594L38.3331 90.5079Z" fill="url(#paint5_linear_487_9)"/>
<path d="M43.5704 83.1747C42.9338 83.1747 42.6089 83.4629 42.5305 84.0292L42.2188 85.9919H46.2338L46.1431 86.5806H42.1281L41.7513 89.0515C41.6606 89.5944 41.9336 89.8714 42.5305 89.8714H46.1167V90.4489C44.9209 90.5182 43.6223 90.5182 42.4133 90.5182C41.296 90.5182 40.7501 89.9407 40.8805 89.0627L41.7116 83.8194C41.8287 83.0341 42.4388 82.5259 43.4532 82.5259C44.7529 82.5259 46.0912 82.5259 47.2992 82.5951L47.182 83.1726H43.5704V83.1747Z" fill="url(#paint6_linear_487_9)"/>
<path d="M51.3926 86.3728C53.0293 86.5347 53.3288 88.1858 53.9521 90.5182L53.0813 90.4948C52.4702 88.197 52.2369 86.6722 50.4698 86.661H49.3393C49.3393 86.9503 49.3128 87.2385 49.2608 87.5736L48.7933 90.507H47.949L49.2099 82.5381H50.0543L49.6519 85.1251C49.5868 85.4714 49.5348 85.7484 49.4442 86.0377H50.5228C52.1473 86.0377 53.0171 84.3867 54.109 82.5269L54.992 82.5503C53.888 84.4783 52.9652 86.2109 51.4191 86.3382L51.3926 86.3728Z" fill="url(#paint7_linear_487_9)"/>
<path d="M62.6584 86.5582C62.1909 89.6188 61.1378 90.6465 58.6302 90.6465C56.1613 90.6465 55.2782 89.5842 55.759 86.4889C56.2265 83.4751 57.2531 82.4006 59.8127 82.4006C62.2938 82.4006 63.1514 83.4863 62.6584 86.5582ZM56.6288 86.5582C56.2387 89.1218 56.7194 89.9763 58.6424 89.9763C60.5918 89.9763 61.3578 89.1106 61.7743 86.4889C62.2031 83.8795 61.7224 83.0708 59.7862 83.0708C57.798 83.0708 57.0576 83.9253 56.6288 86.5582Z" fill="url(#paint8_linear_487_9)"/>
<path d="M73.6381 82.5391C73.8723 82.5391 74.0149 82.6776 73.9885 82.8976L73.1573 90.5079H72.313L73.1319 83.1746H72.8589L69.5324 89.4334C69.454 89.6065 69.3379 89.6758 69.1423 89.6758H68.2847C68.077 89.6758 67.9466 89.5719 67.9211 89.3988L66.5309 83.1746H66.2446L64.7637 90.5079H63.9061L65.4787 82.8629C65.5307 82.644 65.6478 82.5391 65.881 82.5391H66.8812C67.0758 82.5391 67.1929 82.6429 67.2194 82.8161L68.4019 88.0248C68.4803 88.3833 68.5322 88.7408 68.6097 89.1105H68.8959C69.0782 88.7296 69.2595 88.3599 69.4418 88.0136L72.2223 82.7937C72.3008 82.6205 72.4169 82.5401 72.6257 82.5401H73.6381V82.5391Z" fill="url(#paint9_linear_487_9)"/>
<defs>
<linearGradient id="paint0_linear_487_9" x1="2.69813" y1="47.5013" x2="79.3828" y2="84.1166" gradientUnits="userSpaceOnUse">
<stop stop-color="#F9D4BC"/>
<stop offset="1" stop-color="#F4AF84"/>
</linearGradient>
<linearGradient id="paint1_linear_487_9" x1="8.62989" y1="35.0776" x2="85.3146" y2="71.6927" gradientUnits="userSpaceOnUse">
<stop stop-color="#F9D4BC"/>
<stop offset="1" stop-color="#F4AF84"/>
</linearGradient>
<linearGradient id="paint2_linear_487_9" x1="16.3292" y1="18.9527" x2="93.0138" y2="55.5679" gradientUnits="userSpaceOnUse">
<stop stop-color="#F9D4BC"/>
<stop offset="1" stop-color="#F4AF84"/>
</linearGradient>
<linearGradient id="paint3_linear_487_9" x1="12.0179" y1="86.2986" x2="75.2836" y2="87.6702" gradientUnits="userSpaceOnUse">
<stop stop-color="#F9D4BC"/>
<stop offset="1" stop-color="#F4AF84"/>
</linearGradient>
<linearGradient id="paint4_linear_487_9" x1="12.0206" y1="86.1733" x2="75.2863" y2="87.5449" gradientUnits="userSpaceOnUse">
<stop stop-color="#F9D4BC"/>
<stop offset="1" stop-color="#F4AF84"/>
</linearGradient>
<linearGradient id="paint5_linear_487_9" x1="12.0239" y1="86.0198" x2="75.2896" y2="87.3914" gradientUnits="userSpaceOnUse">
<stop stop-color="#F9D4BC"/>
<stop offset="1" stop-color="#F4AF84"/>
</linearGradient>
<linearGradient id="paint6_linear_487_9" x1="12.028" y1="85.8357" x2="75.2936" y2="87.2073" gradientUnits="userSpaceOnUse">
<stop stop-color="#F9D4BC"/>
<stop offset="1" stop-color="#F4AF84"/>
</linearGradient>
<linearGradient id="paint7_linear_487_9" x1="12.0315" y1="85.6721" x2="75.2972" y2="87.0437" gradientUnits="userSpaceOnUse">
<stop stop-color="#F9D4BC"/>
<stop offset="1" stop-color="#F4AF84"/>
</linearGradient>
<linearGradient id="paint8_linear_487_9" x1="12.0351" y1="85.5004" x2="75.3009" y2="86.872" gradientUnits="userSpaceOnUse">
<stop stop-color="#F9D4BC"/>
<stop offset="1" stop-color="#F4AF84"/>
</linearGradient>
<linearGradient id="paint9_linear_487_9" x1="12.0397" y1="85.2933" x2="75.3054" y2="86.6649" gradientUnits="userSpaceOnUse">
<stop stop-color="#F9D4BC"/>
<stop offset="1" stop-color="#F4AF84"/>
</linearGradient>
</defs>
</svg>
