<svg width="84" height="67" viewBox="0 0 84 67" fill="none" xmlns="http://www.w3.org/2000/svg">
<path d="M12.681 34.5568H4.21788C2.72438 48.0332 6.20922 52.5253 7.20488 58.0157C8.01952 62.5079 17.6594 62.0087 16.6637 57.0175C15.1232 49.295 12.3492 39.0489 12.681 34.5568Z" fill="#00C9AF"/>
<path d="M24.8193 15.344L18.6551 9.53001C8.35715 18.3196 7.24503 25.3816 4.21796 30.0645C1.74126 33.8961 9.99507 36.8795 12.681 32.5601C16.8368 25.877 21.5075 18.3879 24.8193 15.344Z" fill="#FFD777"/>
<path d="M59.1807 15.344L65.3449 9.53001C75.6428 18.3196 76.7549 25.3816 79.782 30.0645C82.2587 33.8961 74.0049 36.8795 71.3189 32.5601C67.1632 25.877 62.4925 18.3879 59.1807 15.344Z" fill="#FF8244"/>
<path d="M58.978 14.342L66.9439 8.6027C38.0717 -4.37171 27.877 5.37253 22.487 6.7655C18.077 7.90521 22.1366 15.7027 27.03 14.3458C34.6013 12.2465 38.0702 7.60756 58.978 14.342Z" fill="#FFBA4A"/>
<path d="M71.9953 36.0541H80.4585C81.952 49.5306 78.4671 54.0227 77.4714 59.5131C76.6568 64.0053 67.017 63.5061 68.0126 58.5149C69.5531 50.7923 72.3272 40.5463 71.9953 36.0541Z" fill="#FD4848"/>
<path d="M13.4208 61.5091C11.1332 61.5091 9.07678 60.3937 8.10631 58.5285C5.30888 53.1519 3.72656 47.0377 3.72656 40.5484C3.72656 19.0447 21.1125 1.61914 42.551 1.61914C63.9895 1.61914 81.3755 19.0447 81.3755 40.5484C81.3755 47.0377 79.7932 53.1518 76.9957 58.5285C76.0253 60.3937 73.9688 61.5091 71.6813 61.5091C70.5669 61.5091 69.4874 60.704 68.8318 59.2273C68.1777 57.7539 68.162 56.0382 68.8061 54.8524C71.1158 50.6004 72.4275 45.7257 72.4275 40.5484C72.4275 24.011 59.055 10.5982 42.551 10.5982C26.047 10.5982 12.6746 24.011 12.6746 40.5484C12.6746 45.7257 13.9862 50.6004 16.2959 54.8524C16.9401 56.0382 16.9244 57.7539 16.2702 59.2273C15.6146 60.704 14.5351 61.5091 13.4208 61.5091Z" stroke="#241D19" stroke-width="3"/>
<path d="M49.5142 40.0472C49.5142 44.1843 46.1701 47.5314 42.0532 47.5314C37.9363 47.5314 34.5922 44.1843 34.5922 40.0472C34.5922 35.91 37.9363 32.5629 42.0532 32.5629C46.1701 32.5629 49.5142 35.91 49.5142 40.0472Z" stroke="#241D19" stroke-width="3"/>
<path d="M42.5581 43.1863L15.5931 49.8216L40.2045 36.9355C41.9929 35.9992 44.1946 36.8381 44.9058 38.7269C45.617 40.6157 44.5175 42.7041 42.5581 43.1863Z" fill="#858585" stroke="#241D19" stroke-width="3"/>
<ellipse cx="18.6551" cy="43.541" rx="1.4935" ry="1.49738" fill="#241D19"/>
<ellipse cx="21.6421" cy="26.5707" rx="1.4935" ry="1.49738" fill="#241D19"/>
<ellipse cx="42.5511" cy="14.5917" rx="1.4935" ry="1.49738" fill="#241D19"/>
<ellipse cx="62.4644" cy="26.5707" rx="1.4935" ry="1.49738" fill="#241D19"/>
<ellipse cx="66.4471" cy="43.541" rx="1.4935" ry="1.49738" fill="#241D19"/>
<mask id="path-14-inside-1_135_77" fill="white">
<rect x="33.0922" y="61.0105" width="18.9177" height="5.98952" rx="1"/>
</mask>
<rect x="33.0922" y="61.0105" width="18.9177" height="5.98952" rx="1" fill="#8AE7D3" stroke="#241D19" stroke-width="4" mask="url(#path-14-inside-1_135_77)"/>
</svg>
