<svg width="20" height="12" viewBox="0 0 20 12" fill="none" xmlns="http://www.w3.org/2000/svg">
<path d="M19.1602 1.39844C19.2656 0.976562 19.1602 0.625 18.5273 0.625H16.4531C15.9258 0.625 15.6797 0.90625 15.5391 1.22266C15.5391 1.22266 14.4844 3.78906 13.0078 5.47656C12.5156 5.93359 12.3047 6.10938 12.0234 6.10938C11.918 6.10938 11.707 5.93359 11.707 5.51172V1.39844C11.707 0.871094 11.5664 0.625 11.1094 0.625H7.875C7.52344 0.625 7.34766 0.871094 7.34766 1.11719C7.34766 1.60938 8.08594 1.71484 8.15625 3.12109V6.17969C8.15625 6.84766 8.05078 6.98828 7.76953 6.98828C7.06641 6.98828 5.37891 4.38672 4.35938 1.43359C4.14844 0.871094 3.9375 0.625 3.41016 0.625H1.33594C0.773438 0.625 0.632812 0.90625 0.632812 1.22266C0.632812 1.78516 1.33594 4.49219 3.90234 8.11328C5.625 10.5742 8.05078 11.875 10.2305 11.875C11.5312 11.875 11.707 11.5938 11.707 11.1016C11.707 8.74609 11.6016 8.5 12.2344 8.5C12.5508 8.5 13.0781 8.67578 14.3086 9.87109C15.7148 11.2773 15.9609 11.875 16.7344 11.875H18.8086C19.4062 11.875 19.6875 11.5938 19.5117 10.9961C19.125 9.80078 16.4883 7.26953 16.3477 7.09375C16.0312 6.70703 16.1367 6.53125 16.3477 6.17969C16.3477 6.17969 18.8789 2.59375 19.1602 1.39844Z" fill="#F4AE86"/>
</svg>
